<svg width="40" height="40" viewBox="0 0 40 40" fill="none" xmlns="http://www.w3.org/2000/svg">
<rect width="40" height="40" fill="white"/>
<rect x="0.5" y="0.5" width="39" height="39" stroke="black" stroke-opacity="0.11"/>
<path d="M30.1157 34.7172L19.9996 37.441L9.88325 34.7172L7.54883 9.42676H32.4504L30.1157 34.7172Z" fill="#2062AF"/>
<path d="M20 11.4756V35.2689L20.0229 35.2751L28.2095 33.0707L30.0991 11.4756H20V11.4756Z" fill="#3C9CD7"/>
<path d="M14.2585 5.71101V4.20573H16.4547V2.55859H12.6113V7.21406H16.4547V5.71101H14.2585ZM20.4054 4.20573H21.9408V2.55859H18.0971V4.20573C18.6114 4.71997 18.8795 4.96609 19.6233 5.70982C19.1885 5.70982 18.0971 5.71138 18.0971 5.71131V7.21406H21.9408V5.71101L20.4054 4.20573ZM25.8532 4.20573H27.3885V2.55859H23.5447V4.20573C24.0589 4.71997 24.3272 4.96609 25.071 5.70982C24.6363 5.70982 23.5447 5.71138 23.5447 5.71131V7.21406H27.3886V5.71101L25.8532 4.20573V4.20573Z" fill="black"/>
<path d="M19.9905 17.7993L12.75 20.8147L12.9901 23.8003L19.9905 20.8072L27.437 17.6234L27.7458 14.5693L19.9905 17.7993Z" fill="white"/>
<path d="M12.75 20.8143L12.9901 23.7998L19.9905 20.8067V17.7988L12.75 20.8143V20.8143Z" fill="url(#paint0_linear)"/>
<path d="M27.7465 14.5693L19.9912 17.7992V20.8071L27.4378 17.6233L27.7465 14.5693Z" fill="url(#paint1_linear)"/>
<path d="M12.7617 20.8145L13.0019 23.8L23.743 23.8342L23.5028 27.8149L19.9683 28.8099L16.5707 27.9521L16.3648 25.4813H13.2078L13.6196 30.2512L20.0026 32.1385L26.3511 30.2854L27.1747 20.8145H12.7617V20.8145Z" fill="url(#paint2_linear)"/>
<path opacity="0.05" d="M19.9905 20.8145H12.75L12.9901 23.8L19.9905 23.8223V20.8145ZM19.9905 28.8004L19.9562 28.81L16.559 27.9521L16.3531 25.4814H13.1961L13.6079 30.2513L19.9905 32.1386V28.8004Z" fill="black"/>
<path d="M12.0986 14.5693H27.7465L27.4377 17.6234H12.4761L12.0986 14.5693V14.5693Z" fill="url(#paint3_linear)"/>
<path opacity="0.05" d="M19.9912 14.5693H12.0986L12.4761 17.6234H19.9912V14.5693V14.5693Z" fill="black"/>
<defs>
<linearGradient id="paint0_linear" x1="16.3702" y1="23.7999" x2="16.3702" y2="17.7989" gradientUnits="userSpaceOnUse">
<stop offset="0.387" stop-color="#D1D3D4" stop-opacity="0"/>
<stop offset="1" stop-color="#D1D3D4"/>
</linearGradient>
<linearGradient id="paint1_linear" x1="23.8688" y1="20.8072" x2="23.8688" y2="14.5694" gradientUnits="userSpaceOnUse">
<stop offset="0.387" stop-color="#D1D3D4" stop-opacity="0"/>
<stop offset="1" stop-color="#D1D3D4"/>
</linearGradient>
<linearGradient id="paint2_linear" x1="12.7617" y1="26.4766" x2="27.1746" y2="26.4766" gradientUnits="userSpaceOnUse">
<stop stop-color="#E8E7E5"/>
<stop offset="1" stop-color="white"/>
</linearGradient>
<linearGradient id="paint3_linear" x1="12.0986" y1="16.0964" x2="27.7464" y2="16.0964" gradientUnits="userSpaceOnUse">
<stop stop-color="#E8E7E5"/>
<stop offset="1" stop-color="white"/>
</linearGradient>
</defs>
</svg>
