<svg width="40" height="40" viewBox="0 0 40 40" fill="none" xmlns="http://www.w3.org/2000/svg">
<rect width="40" height="40" fill="white"/>
<rect x="0.5" y="0.5" width="39" height="39" stroke="black" stroke-opacity="0.17"/>
<path d="M18.926 17.7062C18.734 17.7002 18.578 17.8502 18.572 18.0362V19.7641C17.7501 19.1042 16.5441 19.2362 15.8841 20.0581C15.6141 20.4001 15.4642 20.8201 15.4642 21.2581C15.4462 22.314 16.2861 23.184 17.3421 23.202C18.398 23.22 19.268 22.38 19.286 21.3241V18.0602C19.286 17.9642 19.25 17.8742 19.184 17.8082C19.112 17.7422 19.022 17.7062 18.926 17.7062ZM18.476 21.7201C18.356 22.0081 18.128 22.236 17.8401 22.362C17.5401 22.488 17.2041 22.488 16.9041 22.362C16.6161 22.242 16.3941 22.0081 16.2741 21.7261C16.1481 21.4321 16.1481 21.0961 16.2741 20.7961C16.3941 20.5081 16.6221 20.2801 16.9041 20.1601C17.2041 20.0341 17.5401 20.0341 17.8401 20.1601C18.128 20.2861 18.356 20.5141 18.476 20.8021C18.602 21.0901 18.602 21.4261 18.476 21.7201V21.7201ZM22.9159 19.9081C22.1719 19.1642 20.9599 19.1642 20.216 19.9081C19.856 20.2681 19.658 20.7541 19.658 21.2581C19.64 22.314 20.48 23.184 21.5359 23.202C22.5919 23.22 23.4618 22.38 23.4798 21.3241V21.2581C23.4798 21.0061 23.4318 20.7601 23.3358 20.5261C23.2398 20.2921 23.0958 20.0821 22.9159 19.9081V19.9081ZM22.6699 21.7141C22.6099 21.8581 22.5199 21.9841 22.4119 22.0921C22.3039 22.2001 22.1719 22.29 22.0339 22.35C21.7339 22.476 21.3979 22.476 21.0979 22.35C20.8099 22.23 20.5819 21.9961 20.462 21.7141C20.336 21.4201 20.336 21.0841 20.462 20.7841C20.5819 20.4961 20.8099 20.2741 21.0979 20.1481C21.3979 20.0221 21.7339 20.0221 22.0339 20.1481C22.1779 20.2081 22.3039 20.2981 22.4119 20.4061C22.5199 20.5141 22.6099 20.6461 22.6699 20.7841C22.7959 21.0901 22.7959 21.4261 22.6699 21.7141ZM30.8175 19.6982C30.8175 19.6502 30.8055 19.6022 30.7875 19.5602C30.7695 19.5182 30.7395 19.4822 30.7095 19.4462C30.6795 19.4162 30.6375 19.3862 30.5955 19.3682C30.5535 19.3502 30.5056 19.3382 30.4576 19.3382C30.3916 19.3382 30.3256 19.3562 30.2656 19.3922L28.2256 20.7181V18.0662C28.2256 17.9702 28.1896 17.8802 28.1236 17.8142C28.0576 17.7482 27.9677 17.7062 27.8717 17.7062C27.6737 17.7062 27.5177 17.8622 27.5117 18.0602V22.806C27.5117 22.902 27.5477 22.992 27.6137 23.058C27.6797 23.13 27.7697 23.166 27.8657 23.166C27.9617 23.166 28.0517 23.13 28.1176 23.058C28.1836 22.992 28.2256 22.902 28.2196 22.806V21.5761L28.6336 21.3061L30.2116 23.076C30.2776 23.136 30.3616 23.172 30.4516 23.166C30.4996 23.166 30.5475 23.16 30.5895 23.136C30.6315 23.118 30.6675 23.094 30.7035 23.058C30.7335 23.022 30.7635 22.986 30.7815 22.944C30.7995 22.902 30.8115 22.854 30.8115 22.806C30.8115 22.716 30.7755 22.626 30.7155 22.56L29.2516 20.9101L30.6795 19.9801C30.7755 19.9201 30.8235 19.8121 30.8175 19.6982ZM24.8958 20.4061C25.0038 20.2981 25.1358 20.2081 25.2798 20.1481C25.4298 20.0881 25.5857 20.0521 25.7477 20.0521C25.8917 20.0521 26.0297 20.0761 26.1617 20.1241C26.2937 20.1781 26.4197 20.2501 26.5277 20.3461C26.5937 20.4001 26.6777 20.4241 26.7617 20.4241C26.8577 20.4301 26.9537 20.3941 27.0197 20.3221C27.0857 20.2561 27.1217 20.1601 27.1217 20.0641C27.1217 19.9621 27.0797 19.8601 26.9957 19.7941C26.6537 19.4882 26.2097 19.3202 25.7477 19.3322C24.6918 19.3322 23.8338 20.1901 23.8338 21.2461C23.8338 22.302 24.6858 23.154 25.7357 23.16C26.1977 23.16 26.6417 22.998 26.9897 22.698C27.0617 22.632 27.1037 22.536 27.1037 22.434C27.1097 22.242 26.9597 22.0861 26.7737 22.0801H26.7497C26.6657 22.0801 26.5877 22.1041 26.5217 22.1521C26.4137 22.248 26.2937 22.32 26.1617 22.374C26.0297 22.422 25.8857 22.446 25.7477 22.446C25.5857 22.446 25.4298 22.416 25.2798 22.35C25.1358 22.29 25.0098 22.2001 24.8958 22.0921C24.4278 21.6241 24.4278 20.8681 24.8898 20.4001C24.8958 20.4121 24.8958 20.4121 24.8958 20.4061V20.4061ZM37.9033 19.5842C37.8313 19.5182 37.7533 19.4702 37.6633 19.4402C37.5613 19.4042 37.4533 19.3802 37.3453 19.3682C37.2373 19.3562 37.1293 19.3502 37.0213 19.3502C36.8053 19.3502 36.5833 19.3862 36.3793 19.4642C36.1753 19.5362 35.9893 19.6442 35.8213 19.7761V19.7041C35.8153 19.5062 35.6473 19.3562 35.4494 19.3622C35.3596 19.3652 35.2744 19.4021 35.2109 19.4656C35.1474 19.5291 35.1104 19.6144 35.1074 19.7041V22.818C35.1134 23.016 35.2814 23.166 35.4794 23.16C35.5691 23.157 35.6544 23.12 35.7179 23.0565C35.7814 22.993 35.8183 22.9078 35.8213 22.818V21.2641C35.8213 21.1021 35.8513 20.9461 35.9173 20.7961C35.9773 20.6521 36.0613 20.5261 36.1753 20.4181C36.2833 20.3101 36.4153 20.2201 36.5533 20.1601C36.7033 20.1001 36.8593 20.0641 37.0213 20.0641C37.1833 20.0641 37.3393 20.0941 37.4893 20.1481C37.5373 20.1721 37.5853 20.1841 37.6393 20.1841C37.6873 20.1841 37.7353 20.1781 37.7773 20.1541C37.8193 20.1361 37.8553 20.1121 37.8913 20.0761C37.9213 20.0461 37.9513 20.0041 37.9693 19.9621C37.9873 19.9201 37.9993 19.8721 37.9993 19.8241C38.0053 19.7341 37.9693 19.6502 37.9033 19.5842V19.5842ZM34.5914 20.5261C34.2854 19.8181 33.5894 19.3562 32.8215 19.3502C31.7655 19.3502 30.9135 20.2021 30.9075 21.2581C30.9075 22.314 31.7655 23.172 32.8215 23.172C33.2774 23.172 33.7214 23.01 34.0694 22.71L34.0814 22.698C34.1114 22.674 34.1414 22.644 34.1594 22.608C34.2734 22.44 34.2314 22.218 34.0694 22.1041C33.9314 22.0141 33.7514 22.0321 33.6314 22.1461C33.6194 22.1581 33.5834 22.188 33.5834 22.194L33.5774 22.2C33.4754 22.284 33.3614 22.356 33.2354 22.398C33.1034 22.446 32.9655 22.47 32.8215 22.464C32.6895 22.464 32.5635 22.446 32.4375 22.404C32.3175 22.362 32.2035 22.308 32.1015 22.23C31.9995 22.1581 31.9095 22.0681 31.8375 21.9661C31.7595 21.8641 31.7055 21.7441 31.6695 21.6241H34.3694C34.4654 21.6241 34.5554 21.5881 34.6214 21.5221C34.6934 21.4561 34.7294 21.3661 34.7234 21.2701C34.7294 21.0121 34.6814 20.7601 34.5914 20.5261V20.5261ZM31.6695 20.9101C31.7055 20.7841 31.7595 20.6701 31.8375 20.5681C31.9095 20.4661 31.9995 20.3761 32.1015 20.3041C32.2035 20.2321 32.3175 20.1721 32.4375 20.1301C32.5575 20.0881 32.6895 20.0701 32.8155 20.0701C32.9415 20.0701 33.0734 20.0881 33.1934 20.1301C33.4334 20.2081 33.6434 20.3641 33.7934 20.5681C33.8714 20.6701 33.9254 20.7901 33.9674 20.9101H31.6695ZM36.6853 22.65C36.5473 22.65 36.4393 22.764 36.4393 22.902C36.4393 23.04 36.5533 23.148 36.6913 23.148C36.8293 23.148 36.9373 23.034 36.9373 22.902C36.9373 22.758 36.8233 22.65 36.6853 22.65ZM36.6853 23.094C36.5773 23.1 36.4873 23.016 36.4813 22.908C36.4753 22.8 36.5593 22.71 36.6673 22.704C36.7753 22.698 36.8653 22.782 36.8713 22.89V22.902C36.8773 23.004 36.7933 23.094 36.6913 23.094H36.6853Z" fill="#0091E2"/>
<path d="M36.7454 22.9018C36.7754 22.8958 36.7934 22.8718 36.7934 22.8418C36.7934 22.8178 36.7874 22.7998 36.7694 22.7878C36.7454 22.7758 36.7154 22.7698 36.6854 22.7698C36.6554 22.7698 36.6194 22.7698 36.5894 22.7758V23.0218H36.6434V22.9258H36.6674C36.6974 22.9258 36.7154 22.9378 36.7214 22.9618C36.7274 22.9798 36.7334 23.0038 36.7394 23.0218H36.7994C36.7874 23.0038 36.7814 22.9798 36.7814 22.9618C36.7874 22.9378 36.7694 22.9138 36.7454 22.9018V22.9018ZM36.6734 22.8838H36.6434V22.8118H36.6734C36.7094 22.8118 36.7274 22.8298 36.7274 22.8478C36.7334 22.8718 36.7034 22.8898 36.6734 22.8838V22.8838ZM14.8103 18.51C14.7743 18.48 14.4503 18.234 13.7543 18.234C13.5743 18.234 13.3883 18.252 13.2083 18.282C13.0763 17.3641 12.3144 16.9201 12.2844 16.8961L12.0984 16.7881L11.9784 16.9621C11.8284 17.1961 11.7144 17.4601 11.6484 17.73C11.5224 18.252 11.6004 18.744 11.8644 19.164C11.5464 19.344 11.0304 19.386 10.9224 19.392H2.40277C2.18078 19.392 2.00078 19.572 2.00078 19.794C1.98878 20.5379 2.11478 21.2819 2.37277 21.9839C2.66676 22.7518 3.10474 23.3218 3.66872 23.6698C4.30469 24.0598 5.34265 24.2818 6.5126 24.2818C7.04058 24.2818 7.56856 24.2338 8.09054 24.1378C8.81651 24.0058 9.51248 23.7538 10.1545 23.3878C10.6824 23.0818 11.1564 22.6919 11.5584 22.2359C12.2364 21.4739 12.6384 20.6219 12.9323 19.866H13.0523C13.7903 19.866 14.2463 19.572 14.4983 19.32C14.6663 19.164 14.7923 18.972 14.8823 18.756L14.9363 18.6L14.8103 18.51Z" fill="#0091E2"/>
<path d="M3.19477 19.1458H4.33472C4.38872 19.1458 4.43672 19.1038 4.43672 19.0438V18.0239C4.43672 17.9699 4.39472 17.9219 4.33472 17.9219H3.19477C3.14077 17.9219 3.09277 17.9639 3.09277 18.0239V19.0438C3.09877 19.1038 3.14077 19.1458 3.19477 19.1458ZM4.76671 19.1458H5.90666C5.96066 19.1458 6.00866 19.1038 6.00866 19.0438V18.0239C6.00866 17.9699 5.96666 17.9219 5.90666 17.9219H4.76671C4.71271 17.9219 4.66471 17.9639 4.66471 18.0239V19.0438C4.67071 19.1038 4.71271 19.1458 4.76671 19.1458ZM6.36864 19.1458H7.5086C7.5626 19.1458 7.61059 19.1038 7.61059 19.0438V18.0239C7.61059 17.9699 7.5686 17.9219 7.5086 17.9219H6.36864C6.31465 17.9219 6.26665 17.9639 6.26665 18.0239V19.0438C6.26665 19.1038 6.30865 19.1458 6.36864 19.1458ZM7.94658 19.1458H9.08653C9.14053 19.1458 9.18853 19.1038 9.18853 19.0438V18.0239C9.18853 17.9699 9.14653 17.9219 9.08653 17.9219H7.94658C7.89258 17.9219 7.84458 17.9639 7.84458 18.0239V19.0438C7.84458 19.1038 7.89258 19.1458 7.94658 19.1458ZM4.76671 17.6879H5.90666C5.96066 17.6879 6.00866 17.6399 6.00866 17.5859V16.5659C6.00866 16.5119 5.96666 16.4639 5.90666 16.4639H4.76671C4.71271 16.4639 4.66471 16.5059 4.66471 16.5659V17.5859C4.67071 17.6399 4.71271 17.6879 4.76671 17.6879ZM6.36864 17.6879H7.5086C7.5626 17.6879 7.61059 17.6399 7.61059 17.5859V16.5659C7.61059 16.5119 7.5686 16.4639 7.5086 16.4639H6.36864C6.31465 16.4639 6.26665 16.5059 6.26665 16.5659V17.5859C6.26665 17.6399 6.30865 17.6879 6.36864 17.6879ZM7.94658 17.6879H9.08653C9.14053 17.6879 9.18853 17.6399 9.18853 17.5859V16.5659C9.18853 16.5119 9.14053 16.4639 9.08653 16.4639H7.94658C7.89258 16.4639 7.84458 16.5059 7.84458 16.5659V17.5859C7.84458 17.6399 7.89258 17.6879 7.94658 17.6879ZM7.94658 16.224H9.08653C9.14053 16.224 9.18853 16.182 9.18853 16.122V15.102C9.18853 15.048 9.14053 15 9.08653 15H7.94658C7.89258 15 7.84458 15.042 7.84458 15.102V16.122C7.84458 16.176 7.89258 16.224 7.94658 16.224ZM9.53652 19.1458H10.6765C10.7305 19.1458 10.7785 19.1038 10.7785 19.0438V18.0239C10.7785 17.9699 10.7365 17.9219 10.6765 17.9219H9.53652C9.48252 17.9219 9.43452 17.9639 9.43452 18.0239V19.0438C9.44052 19.1038 9.48252 19.1458 9.53652 19.1458Z" fill="#0091E2"/>
</svg>
