<svg width="40" height="40" viewBox="0 0 40 40" fill="none" xmlns="http://www.w3.org/2000/svg">
<path d="M40 0H0V40H40V0Z" fill="white"/>
<path d="M9.4523 35.1089L7.10547 9.0752H32.8936L30.5442 35.1048L19.9837 38.0004L9.4523 35.1089Z" fill="#E44D26"/>
<path d="M20 35.7863L28.5333 33.4464L30.5411 11.2031H20V35.7863Z" fill="#F16529"/>
<path d="M19.9997 20.859H15.7277L15.4326 17.5894H19.9997V14.3965H11.9043L11.9817 15.2531L12.7751 24.0519H19.9997V20.859ZM19.9997 29.1513L19.9855 29.1552L16.39 28.1949L16.1602 25.6485H12.9194L13.3718 30.6618L19.9849 32.4775L19.9997 32.4734V29.1513Z" fill="#EBEBEB"/>
<path d="M9.50488 2H11.1455V3.60309H12.6462V2H14.2869V6.8546H12.6462V5.22902H11.1455V6.8546H9.505L9.50488 2ZM16.4445 3.60993H15.0002V2H19.5303V3.60993H18.0854V6.8546H16.4445V3.60993ZM20.2492 2H21.96L23.0123 3.7058L24.0636 2H25.775V6.8546H24.1409V4.44834L23.0121 6.17443H22.9839L21.8544 4.44834V6.8546H20.2491V2H20.2492ZM26.5914 2H28.2325V5.25H30.5398V6.8546H26.5914V2Z" fill="black"/>
<path d="M19.9883 20.859V24.0519H23.9638L23.5889 28.1929L19.9883 29.154V32.4758L26.6067 30.6618L26.6551 30.1222L27.4139 21.7165L27.4926 20.859H26.6227H19.9883ZM19.9883 14.3965V17.5894H27.7864L27.8511 16.8717L27.9982 15.2531L28.0754 14.3965H19.9883Z" fill="white"/>
</svg>
