<svg width="40" height="40" viewBox="0 0 40 40" fill="none" xmlns="http://www.w3.org/2000/svg">
<rect width="40" height="40" fill="white"/>
<rect x="0.5" y="0.5" width="39" height="39" stroke="black" stroke-opacity="0.52"/>
<path d="M1 1H39V39H1V1Z" fill="#F7DF1E"/>
<path d="M10.9914 32.7553L13.8993 30.9954C14.4603 31.9901 14.9707 32.8317 16.1948 32.8317C17.3682 32.8317 18.1082 32.3728 18.1082 30.5873V18.4455H21.6792V30.6378C21.6792 34.3364 19.5111 36.02 16.3479 36.02C13.4912 36.02 11.833 34.5405 10.9912 32.755L10.9914 32.7553ZM23.6188 32.3726L26.5264 30.6892C27.2919 31.9392 28.2867 32.8574 30.0466 32.8574C31.5264 32.8574 32.4698 32.1176 32.4698 31.0972C32.4698 29.8729 31.5005 29.4392 29.868 28.7252L28.9755 28.3422C26.399 27.2457 24.6901 25.8682 24.6901 22.9603C24.6901 20.2819 26.7306 18.2412 29.9192 18.2412C32.1894 18.2412 33.8219 19.0321 34.9952 21.0982L32.2147 22.8839C31.6024 21.7871 30.9394 21.3535 29.9191 21.3535C28.8732 21.3535 28.21 22.0167 28.21 22.8839C28.21 23.9552 28.8732 24.389 30.4036 25.0523L31.2963 25.4348C34.3318 26.7358 36.0408 28.0621 36.0408 31.0463C36.0408 34.2606 33.5156 36.0205 30.123 36.0205C26.8071 36.0205 24.6644 34.439 23.6186 32.3728" fill="black"/>
</svg>
