<svg width="40" height="40" viewBox="0 0 40 40" fill="none" xmlns="http://www.w3.org/2000/svg">
<path d="M40 0H0V40H40V0Z" fill="white"/>
<path fill-rule="evenodd" clip-rule="evenodd" d="M34.5642 16.915L35.9448 16.9224C35.9448 16.9224 33.378 20.2952 33.1684 20.57C33.1003 20.659 32.9969 20.755 32.9445 20.874C32.8119 21.1732 32.6758 21.8294 32.6758 21.8294L31.4126 21.8355C31.4126 21.8355 31.6091 21.1515 31.601 20.7872C31.5939 20.4689 31.4263 20.151 31.3324 19.8319C31.2374 19.5087 31.1084 18.8765 31.1084 18.8765H32.4071L32.5862 19.5713L34.5642 16.915Z" fill="#1A1918"/>
<path fill-rule="evenodd" clip-rule="evenodd" d="M31.9499 17.6267C32.2047 17.7756 32.361 18.5973 32.361 18.5973C32.361 18.5973 31.0279 18.6163 30.3024 18.6163H29.6755L28.9141 21.8297H27.7499C27.7499 21.8297 28.4744 18.3376 28.6455 17.7045C28.7009 17.4995 29.0253 17.5346 29.5729 17.5346H30.4475C31.0122 17.5346 31.6723 17.4647 31.9499 17.6267ZM26.5296 19.1917C26.5296 19.1917 26.5658 18.9855 26.4065 18.7466C26.2703 18.543 26.1445 18.4956 25.7862 18.4847C24.7746 18.4539 24.7943 19.1808 24.7943 19.1808L26.5296 19.1917ZM27.6267 18.3592C27.7749 18.8778 27.4924 20.0962 27.4924 20.0962C27.4924 20.0962 26.0168 20.0723 25.2085 20.0962C24.9572 20.1036 24.6564 20.0697 24.5816 20.1831C24.4763 20.342 24.6201 20.5865 24.7419 20.6898C24.8821 20.8088 25.1552 20.8223 25.2533 20.8344C25.9093 20.9152 27.2823 20.8553 27.2823 20.8553L27.0445 21.8765C27.0445 21.8765 25.1042 21.9709 24.1338 21.7463C23.9422 21.702 23.7625 21.6126 23.6412 21.4858C23.608 21.4511 23.5793 21.4038 23.548 21.3629C23.523 21.3303 23.45 21.2231 23.4172 21.1383C23.1956 20.5656 23.4432 19.4683 23.686 18.8803C23.7141 18.8122 23.7495 18.7258 23.7868 18.6523C23.8333 18.5608 23.8727 18.4574 23.9099 18.4026C23.9349 18.3649 23.9659 18.3406 23.9918 18.305C24.0218 18.2628 24.0567 18.222 24.089 18.1856C24.1786 18.0848 24.2802 18.0136 24.4025 17.9251C24.8068 17.6315 25.5385 17.4035 26.4176 17.4908C26.7486 17.5238 27.2484 17.6384 27.4924 17.9685C27.5577 18.0566 27.59 18.2316 27.6267 18.3593V18.3592ZM22.2865 17.5306L23.4155 17.5242C23.4155 17.5242 22.7863 20.4184 22.4657 21.8297H21.1669C20.2593 21.8297 19.451 21.9387 19.1071 21.3086C18.7735 20.6968 19.0919 19.6906 19.2414 19.0071C19.3471 18.5233 19.5697 17.5346 19.5697 17.5346L20.7394 17.5242C20.7394 17.5242 20.4089 19.0636 20.2714 19.8322C20.2221 20.1075 20.1205 20.3668 20.2266 20.5703C20.3274 20.7641 20.4685 20.778 20.8983 20.7875C21.0345 20.7906 21.4805 20.7875 21.4805 20.7875L22.2865 17.5306ZM17.0024 19.615C17.1206 19.2078 17.293 18.7661 17.2711 18.3991C17.2473 18.0066 16.9079 17.6493 16.6889 17.5741C16.0293 17.3483 15.4118 17.664 15.1663 17.9215C14.8488 18.255 14.7413 18.6446 14.6289 19.1809C14.5453 19.579 14.4767 19.9993 14.6289 20.3098C14.8985 20.8588 15.7391 20.7389 16.6441 20.7441C16.7784 20.395 16.8895 20.0029 17.0024 19.615ZM18.5697 18.0084C18.6986 18.9176 18.2039 19.9213 17.8631 20.794C18.2106 20.8245 18.5151 20.7893 18.5371 20.8145C18.5599 20.847 18.3041 21.8562 18.215 21.8588C17.9392 21.8658 17.0252 21.8731 16.6441 21.8731C15.4005 21.8731 14.2371 21.9517 13.6438 21.3521C13.4029 21.1085 13.2363 20.6906 13.1959 20.3967C13.1288 19.906 13.213 19.3658 13.3303 18.9203C13.4365 18.5181 13.5725 18.1386 13.7782 17.7912C14.3007 16.9067 15.2098 16.2501 16.7337 16.4017C17.0292 16.4312 17.4537 16.5567 17.7189 16.7056C17.7372 16.7161 17.8013 16.7656 17.816 16.7743C18.1743 16.9953 18.5008 17.5229 18.5697 18.0084ZM13.0674 17.5359C12.9922 17.8681 12.917 18.2446 12.8377 18.5729H11.5838C11.681 18.209 11.7554 17.8473 11.8526 17.5307C12.2538 17.5307 12.6268 17.5359 13.0675 17.5359H13.0674ZM11.5391 18.8769H12.7482C12.5901 19.7254 12.277 21.0941 12.0317 22.0468C11.8781 22.6431 11.7755 23.0781 11.3599 23.393C11.3227 23.4212 11.3013 23.4078 11.2703 23.4364C11.1938 23.5072 10.8395 23.5893 10.6435 23.6101C10.3246 23.6436 9.96414 23.6145 9.57227 23.6066C9.67481 23.2432 9.79083 22.8068 9.88222 22.481C10.8374 22.5931 10.8616 21.7176 11.0465 20.8744C11.1535 20.3871 11.4778 19.0723 11.5391 18.8769Z" fill="#1A1918"/>
<path fill-rule="evenodd" clip-rule="evenodd" d="M8.71777 21.092L8.69186 21.1571C8.25036 21.9909 7.46796 22.5024 6.35202 22.5249C5.83034 22.5354 5.33327 22.4055 5.00856 22.2644C4.30783 21.9591 3.7184 21.3929 3.39652 20.788C2.93478 19.9208 2.85151 18.7145 3.8116 17.8135C3.82643 17.8135 3.69513 18.0089 3.70996 18.0089L3.68353 18.0922C2.99169 20.1926 5.12322 21.9926 7.19526 21.7867C7.69323 21.7372 8.32822 21.4728 8.71777 21.092Z" fill="#21609B"/>
<path fill-rule="evenodd" clip-rule="evenodd" d="M7.46441 20.2235C7.98571 20.2269 8.53021 19.9907 8.85267 19.659C8.57056 20.3534 7.75374 20.7997 6.65842 20.6577C5.74126 20.5387 4.8676 19.6438 4.77762 18.747C4.71181 18.0944 4.94636 17.7049 5.33288 17.2324C5.19856 17.4795 5.14835 17.6701 5.13585 17.7917C4.98902 19.2034 6.29884 20.216 7.46441 20.2235Z" fill="#21609B"/>
<path fill-rule="evenodd" clip-rule="evenodd" d="M8.79977 18.4698C8.71875 18.6501 8.25218 18.9904 8.04612 19.033C7.23021 19.2016 6.70769 18.8264 6.43395 18.3994C6.39328 18.3357 6.31807 18.1616 6.3046 18.1172C6.19844 17.7672 6.24723 17.2379 6.56389 16.9639C6.4685 17.2244 6.45458 17.5271 6.50479 17.7238C6.53521 17.8427 6.62789 18.0504 6.72064 18.1811C6.88938 18.419 6.99644 18.4768 7.21319 18.6032C7.31084 18.6601 7.41558 18.7057 7.46082 18.7182C7.66636 18.7769 8.10033 18.9314 8.79984 18.4698" fill="#21609B"/>
</svg>
