<svg width="40" height="40" viewBox="0 0 40 40" fill="none" xmlns="http://www.w3.org/2000/svg">
<path d="M40 0H0V40H40V0Z" fill="white"/>
<path d="M20 29.8388C29.9411 29.8388 38 25.6216 38 20.4194C38 15.2172 29.9411 11 20 11C10.0589 11 2 15.2172 2 20.4194C2 25.6216 10.0589 29.8388 20 29.8388Z" fill="#8993BE"/>
<path fill-rule="evenodd" clip-rule="evenodd" d="M7.05469 25.9963L9.02737 15.9571H13.5888C15.5614 16.0811 16.5477 17.0725 16.5477 18.8078C16.5477 21.7824 14.2053 23.5175 12.1093 23.3935H9.89039L9.39722 25.9963H7.05469ZM10.3834 21.5345L10.9999 17.8162H12.6026C13.4656 17.8162 14.082 18.188 14.082 18.9316C13.9588 21.0387 12.9725 21.4105 11.8629 21.5345H10.3836H10.3834ZM16.0894 23.3935L18.062 13.3545H20.4045L19.9113 15.9571H22.1304C24.1031 16.0811 24.8428 17.0725 24.5962 18.312L23.7332 23.3935H21.2675L22.1305 18.8078C22.2537 18.188 22.2537 17.8162 21.3908 17.8162H19.5415L18.432 23.3935H16.0894ZM23.5753 25.9963L25.5479 15.9571H30.1095C32.0821 16.0811 33.0685 17.0725 33.0685 18.8078C33.0685 21.7824 30.726 23.5175 28.6301 23.3935H26.4109L25.9177 25.9963H23.5753ZM26.9039 21.5345L27.5204 17.8162H29.1233C29.9863 17.8162 30.6026 18.188 30.6026 18.9316C30.4794 21.0387 29.4931 21.4105 28.3836 21.5345H26.904H26.9039Z" fill="#232531"/>
</svg>
