<svg width="40" height="40" viewBox="0 0 40 40" fill="none" xmlns="http://www.w3.org/2000/svg">
<path d="M40 0H0V40H40V0Z" fill="white"/>
<path d="M1.1123 19.934C1.1123 22.7696 3.89745 25.4165 8.28823 26.9086C7.41141 31.2969 8.13117 34.834 10.535 36.2121C13.0057 37.6288 16.6867 36.6482 20.1804 33.6119C23.586 36.5256 27.0279 37.6722 29.4296 36.29C31.8981 34.8694 32.6487 31.0925 31.7477 26.5671C36.3211 25.064 38.8793 22.8069 38.8793 19.934C38.8793 17.1643 36.0891 14.7682 31.7574 13.2857C32.7274 8.57339 31.9055 5.12219 29.4021 3.68707C26.9887 2.30346 23.5068 3.5094 20.0511 6.49916C16.456 3.32582 13.0085 2.35703 10.5078 3.79613C8.09659 5.18372 7.40859 8.78515 8.28823 13.2546C4.04559 14.7251 1.1123 17.1755 1.1123 19.934Z" fill="white"/>
<path d="M30.8397 14.7572C30.4827 14.6354 30.1227 14.5226 29.76 14.4189C29.8201 14.1759 29.8758 13.9319 29.9268 13.6868C30.7441 9.7426 30.2097 6.56513 28.3849 5.51916C26.6352 4.51598 23.7736 5.56196 20.8836 8.06223C20.5988 8.30916 20.3203 8.56321 20.0485 8.82413C19.8664 8.65063 19.6811 8.4805 19.4927 8.31383C16.4638 5.64017 13.4278 4.51362 11.6049 5.56269C9.85688 6.56868 9.33912 9.55592 10.0749 13.2939C10.1481 13.664 10.2308 14.0323 10.3228 14.3983C9.89324 14.5196 9.47837 14.6488 9.08145 14.7864C5.53052 16.0171 3.2627 17.9461 3.2627 19.9469C3.2627 22.0134 5.69706 24.0862 9.39583 25.3429C9.69574 25.4443 9.99816 25.5383 10.3028 25.6248C10.2038 26.0191 10.116 26.416 10.0393 26.8152C9.3378 30.4882 9.88568 33.4046 11.6291 34.4044C13.4298 35.4367 16.452 34.3756 19.3949 31.8182C19.6275 31.6161 19.861 31.4017 20.0948 31.1769C20.3892 31.4594 20.6916 31.7336 21.0014 31.9993C23.852 34.4379 26.6673 35.4226 28.4092 34.4202C30.2083 33.3848 30.7928 30.2518 30.0337 26.4399C29.9758 26.1488 29.9083 25.8514 29.8326 25.5486C30.0448 25.4863 30.2531 25.422 30.4563 25.355C34.3014 24.0886 36.803 22.041 36.803 19.9469C36.803 17.9389 34.4622 15.9969 30.8397 14.7572Z" fill="#53C1DE"/>
<path d="M30.0055 24.0037C29.8222 24.0641 29.634 24.1224 29.4422 24.1789C29.0177 22.843 28.4447 21.4223 27.7438 19.9547C28.4128 18.5218 28.9635 17.1195 29.3762 15.7921C29.7192 15.891 30.0523 15.995 30.3732 16.1049C33.477 17.167 35.3702 18.7376 35.3702 19.9476C35.3702 21.2367 33.3255 22.9101 30.0057 24.0037H30.0055ZM28.628 26.7174C28.9637 28.4029 29.0116 29.9269 28.7892 31.1182C28.5894 32.1887 28.1878 32.9023 27.6911 33.1882C26.6341 33.7964 24.3735 33.0058 21.9359 30.9203C21.6564 30.6813 21.3748 30.426 21.0925 30.1559C22.0376 29.1282 22.9821 27.9335 23.9039 26.6069C25.5254 26.4639 27.0573 26.23 28.4465 25.9108C28.5148 26.1853 28.5756 26.4543 28.628 26.7174ZM14.6972 33.0831C13.6645 33.4457 12.842 33.456 12.3449 33.171C11.2868 32.5645 10.8472 30.2226 11.447 27.0816C11.5183 26.7104 11.6 26.3412 11.6919 25.9745C13.0657 26.2766 14.5864 26.494 16.2118 26.625C17.1397 27.9232 18.1115 29.1164 19.0909 30.1614C18.8828 30.3615 18.6697 30.5566 18.4519 30.7463C17.1506 31.8773 15.8465 32.6795 14.6973 33.0831H14.6972ZM9.85916 23.9958C8.22367 23.44 6.87304 22.7178 5.94723 21.9298C5.11539 21.2215 4.69531 20.5183 4.69531 19.9476C4.69531 18.7336 6.5162 17.1848 9.55308 16.1322C9.93425 16.0007 10.3192 15.8803 10.7075 15.7711C11.1273 17.1283 11.6778 18.5474 12.3422 19.9823C11.6692 21.4387 11.1108 22.8803 10.6871 24.2534C10.4091 24.1743 10.133 24.0884 9.85916 23.9958ZM11.481 13.021C10.8506 9.81833 11.2692 7.40247 12.3226 6.79625C13.4448 6.15049 15.9259 7.07132 18.5411 9.37975C18.7083 9.52732 18.8761 9.68183 19.0443 9.84164C18.07 10.8819 17.1071 12.0661 16.1872 13.3567C14.6098 13.5021 13.0997 13.7356 11.7115 14.0483C11.626 13.7078 11.5491 13.3652 11.481 13.0209V13.021ZM25.9487 16.5726C25.6209 16.0095 25.2808 15.4535 24.9288 14.905C25.9991 15.0393 27.0243 15.2179 27.9871 15.4364C27.6981 16.3574 27.3378 17.3205 26.9136 18.3077C26.6036 17.723 26.2819 17.1445 25.9487 16.5726ZM20.0488 10.8596C20.7096 11.5713 21.3715 12.3661 22.0226 13.2284C20.7019 13.1663 19.3791 13.166 18.0584 13.2275C18.71 12.3732 19.3776 11.5796 20.0488 10.8596ZM14.111 16.5823C13.782 17.1497 13.4663 17.7246 13.1643 18.3067C12.747 17.3228 12.39 16.3555 12.0985 15.4214C13.0555 15.2085 14.076 15.0345 15.1392 14.9024C14.7833 15.4543 14.4405 16.0144 14.111 16.5823ZM15.1698 25.0946C14.0714 24.9727 13.0354 24.8075 12.0787 24.6005C12.3749 23.6499 12.7397 22.6617 13.1659 21.6568C13.4692 22.2393 13.7863 22.8145 14.1168 23.3822C14.4541 23.9612 14.8052 24.5322 15.1698 25.0946ZM20.0884 29.1363C19.4093 28.4078 18.732 27.6021 18.0704 26.7354C18.7126 26.7605 19.3673 26.7732 20.0328 26.7732C20.7165 26.7732 21.3923 26.758 22.0575 26.7285C21.4043 27.6109 20.7448 28.4178 20.0884 29.1363ZM26.9272 21.6056C27.3755 22.6215 27.7534 23.6043 28.0536 24.5388C27.081 24.7594 26.0311 24.9371 24.9248 25.069C25.2793 24.5103 25.6226 23.9446 25.9545 23.3723C26.2919 22.7906 26.6162 22.2016 26.9272 21.6056ZM24.7133 22.6607C24.2052 23.5381 23.6686 24.3989 23.1042 25.2417C22.1091 25.3124 21.0807 25.3488 20.0328 25.3488C18.9891 25.3488 17.9738 25.3165 16.996 25.2535C16.417 24.4127 15.8703 23.5504 15.3568 22.6685C14.8458 21.7913 14.3685 20.8951 13.9259 19.9819C14.3674 19.0684 14.8433 18.1717 15.3525 17.2938V17.294C15.8617 16.4159 16.4041 15.5573 16.9788 14.7201C17.9763 14.6452 18.999 14.6059 20.0329 14.6059C21.0714 14.6059 22.0955 14.6455 23.0927 14.721C23.6615 15.5569 24.2005 16.4125 24.7087 17.2862C25.2197 18.1622 25.702 19.0545 26.1546 19.9617C25.7066 20.8781 25.2259 21.7783 24.7134 22.6607H24.7133ZM27.6691 6.7539C28.7922 7.39789 29.2291 9.99467 28.5234 13.4001C28.4771 13.622 28.4269 13.843 28.3726 14.063C26.9811 13.7438 25.47 13.5062 23.888 13.3587C22.9663 12.054 22.0114 10.8677 21.0528 9.84091C21.304 9.60015 21.5612 9.36564 21.8241 9.13759C24.3003 6.99518 26.6146 6.14931 27.6691 6.7539Z" fill="white"/>
<path d="M20.0331 16.9697C21.6873 16.9697 23.0281 18.3029 23.0281 19.9472C23.0281 21.5918 21.6873 22.9249 20.0331 22.9249C18.3791 22.9249 17.0381 21.5918 17.0381 19.9472C17.0381 18.3029 18.3791 16.9697 20.0331 16.9697Z" fill="#53C1DE"/>
</svg>
