<svg width="40" height="40" viewBox="0 0 40 40" fill="none" xmlns="http://www.w3.org/2000/svg">
<rect width="40" height="40" fill="white"/>
<rect x="0.5" y="0.5" width="39" height="39" stroke="black" stroke-opacity="0.52"/>
<g clip-path="url(#clip0)">
<path d="M32.2585 21.8989C31.0698 21.9056 30.0405 22.1911 29.1772 22.6161C28.8585 21.9853 28.5397 21.434 28.4867 21.0224C28.4269 20.5442 28.3538 20.252 28.4269 19.681C28.4999 19.1098 28.8319 18.2996 28.8319 18.2332C28.8252 18.1735 28.7588 17.8813 28.0749 17.8746C27.391 17.868 26.7999 18.0075 26.7335 18.1868C26.6671 18.3661 26.5342 18.7778 26.4479 19.2028C26.3284 19.827 25.0799 22.0383 24.3694 23.2004C24.137 22.7489 23.9378 22.3504 23.8978 22.0316C23.8381 21.5536 23.765 21.2613 23.8381 20.6903C23.9112 20.1191 24.2432 19.309 24.2432 19.2426C24.2366 19.1829 24.1702 18.8907 23.4863 18.884C22.8022 18.8774 22.2113 19.0168 22.1449 19.1961C22.0784 19.3754 22.0054 19.8004 21.8593 20.2121C21.7198 20.6239 20.0596 24.3161 19.628 25.2789C19.4089 25.7704 19.2163 26.1621 19.0768 26.4278C18.9374 26.6934 19.0702 26.4477 19.0569 26.4743C18.9374 26.7 18.871 26.8262 18.871 26.8262V26.8329C18.778 26.9989 18.6784 27.1582 18.6318 27.1582C18.5986 27.1582 18.5322 26.7133 18.6451 26.1024C18.8908 24.8207 19.4885 22.822 19.4819 22.7489C19.4819 22.7157 19.5947 22.3637 19.0967 22.1845C18.6119 22.0052 18.4393 22.304 18.3994 22.304C18.3596 22.304 18.3264 22.4103 18.3264 22.4103C18.3264 22.4103 18.8643 20.1592 17.2971 20.1592C16.3143 20.1592 14.9596 21.2283 14.2889 22.2045C13.8639 22.4369 12.9607 22.9282 12.0045 23.4529C11.6393 23.6521 11.2607 23.8646 10.9021 24.0572L10.8292 23.9774C8.92995 21.952 5.41706 20.5176 5.56315 17.795C5.61627 16.8055 5.96159 14.1957 12.3101 11.0348C17.5097 8.44496 21.6734 9.15551 22.3971 10.736C23.4264 12.9938 20.1725 17.1907 14.7671 17.795C12.7085 18.0274 11.626 17.2305 11.3538 16.9317C11.0683 16.6196 11.0285 16.6063 10.9222 16.6661C10.7495 16.759 10.8558 17.0379 10.9222 17.2039C11.0816 17.6223 11.7456 18.3661 12.8745 18.7379C13.8639 19.0633 16.2812 19.2426 19.2031 18.1137C22.4769 16.8454 25.0335 13.3258 24.2831 10.384C23.5195 7.3891 18.5523 6.40629 13.8574 8.07308C11.0616 9.06918 8.03346 10.6231 5.85534 12.6618C3.26549 15.0789 2.85377 17.1907 3.02643 18.0672C3.63079 21.195 7.94049 23.2336 9.66706 24.7411C9.58073 24.7875 9.50104 24.834 9.42799 24.8739C8.56471 25.2988 5.2776 27.0188 4.45417 28.8383C3.52448 30.8968 4.60026 32.3778 5.31745 32.577C7.53542 33.1946 9.80651 32.0856 11.035 30.2594C12.2568 28.4332 12.1108 26.0625 11.5464 24.9801L11.5264 24.9403L12.2037 24.5418C12.6421 24.2829 13.0737 24.0438 13.4521 23.8379C13.2397 24.4156 13.0869 25.0996 13.0073 26.0957C12.9143 27.2645 13.3924 28.7785 14.0233 29.3761C14.3022 29.6351 14.6342 29.6418 14.8401 29.6418C15.5706 29.6418 15.9026 29.0374 16.2678 28.3136C16.7194 27.4304 17.1178 26.4078 17.1178 26.4078C17.1178 26.4078 16.6198 29.1769 17.9811 29.1769C18.4792 29.1769 18.9772 28.5328 19.203 28.2008V28.2074C19.203 28.2074 19.2163 28.1875 19.2428 28.141C19.2707 28.0998 19.2973 28.0577 19.3225 28.0149V28.0016C19.5217 27.6563 19.9667 26.8661 20.6307 25.5579C21.4873 23.8711 22.3108 21.7594 22.3108 21.7594C22.3108 21.7594 22.3905 22.2774 22.6362 23.1274C22.7822 23.6321 23.101 24.1832 23.3467 24.7211C23.1475 25 23.0279 25.1595 23.0279 25.1595L23.0346 25.1661C22.8753 25.3786 22.6959 25.6045 22.51 25.8302C21.8327 26.6403 21.0225 27.5635 20.9163 27.8291C20.7901 28.1411 20.8167 28.3735 21.0624 28.5595C21.2417 28.6924 21.5604 28.7189 21.8991 28.6924C22.51 28.6524 22.935 28.4998 23.1475 28.4067C23.4796 28.2872 23.8581 28.1079 24.2233 27.8423C24.8874 27.351 25.2924 26.6537 25.2526 25.724C25.2327 25.2127 25.0667 24.708 24.8608 24.2299C24.9206 24.1435 24.9804 24.0571 25.0401 23.9642C26.0893 22.4302 26.8995 20.7435 26.8995 20.7435C26.8995 20.7435 26.9792 21.2615 27.2249 22.1115C27.351 22.5431 27.6034 23.0147 27.8292 23.4795C26.8464 24.283 26.2288 25.2127 26.0163 25.8237C25.6245 26.9526 25.9299 27.4639 26.5077 27.5834C26.7666 27.6366 27.1385 27.517 27.4174 27.3975C27.7627 27.2846 28.1811 27.092 28.5663 26.8065C29.2303 26.3151 29.8678 25.6311 29.8346 24.7081C29.8147 24.2831 29.7018 23.8647 29.5491 23.4663C30.3858 23.1209 31.4682 22.9217 32.8428 23.0877C35.7979 23.433 36.3823 25.2791 36.2695 26.0495C36.1566 26.8198 35.539 27.2448 35.3331 27.3776C35.1272 27.5038 35.0608 27.5503 35.0807 27.6432C35.1073 27.7827 35.2003 27.776 35.3796 27.7495C35.6253 27.7096 36.9335 27.1187 36.9866 25.6976C37.0663 23.8712 35.3331 21.879 32.2585 21.8989V21.8989ZM9.46784 29.5821C8.49167 30.6512 7.11706 31.0563 6.53268 30.711C5.90182 30.3457 6.14746 28.7719 7.34948 27.6364C8.07995 26.9457 9.02956 26.3082 9.65377 25.9164C9.79323 25.8301 10.0057 25.704 10.2581 25.5512C10.2979 25.5247 10.3245 25.5114 10.3245 25.5114C10.371 25.4848 10.4241 25.4516 10.4772 25.4184C10.9221 27.0387 10.4971 28.4598 9.46784 29.5821V29.5821ZM16.6065 24.7278C16.2678 25.5579 15.5506 27.6895 15.119 27.57C14.7471 27.4704 14.5214 25.8567 15.0459 24.2629C15.3115 23.4593 15.876 22.5032 16.208 22.1312C16.746 21.5336 17.3303 21.3343 17.4764 21.58C17.6491 21.8989 16.819 24.2098 16.6065 24.7278ZM22.4967 27.5434C22.3506 27.6165 22.2178 27.6696 22.1581 27.6298C22.1116 27.6032 22.2178 27.5036 22.2178 27.5036C22.2178 27.5036 22.9549 26.7134 23.2471 26.3482C23.4131 26.1357 23.6123 25.89 23.8248 25.611V25.6907C23.8249 26.6469 22.9085 27.2844 22.4967 27.5434ZM27.0389 26.5075C26.9326 26.4278 26.946 26.1821 27.3045 25.4118C27.444 25.1063 27.7627 24.595 28.3139 24.1102C28.3803 24.3094 28.4202 24.5019 28.4135 24.6813C28.4069 25.8766 27.5569 26.3215 27.0389 26.5075Z" fill="#CF649A"/>
</g>
<defs>
<clipPath id="clip0">
<rect width="34" height="34" fill="white" transform="translate(3 3)"/>
</clipPath>
</defs>
</svg>
