<svg width="40" height="40" viewBox="0 0 40 40" fill="none" xmlns="http://www.w3.org/2000/svg">
<path d="M40 0H0V40H40V0Z" fill="white"/>
<path d="M4.5586 19.9995C4.5586 26.1119 8.11062 31.3937 13.2613 33.8971L5.89549 13.7153C5.01249 15.6926 4.55693 17.834 4.5586 19.9995ZM30.4244 19.2203C30.4244 17.312 29.7389 15.9903 29.1509 14.9617C28.3682 13.6897 27.6348 12.6126 27.6348 11.3406C27.6348 9.92115 28.7111 8.59983 30.2275 8.59983C30.296 8.59983 30.3609 8.60835 30.4279 8.61217C27.6804 6.09528 24.0202 4.55859 20.0001 4.55859C14.6056 4.55859 9.85945 7.3264 7.0984 11.5187C7.46068 11.5295 7.8024 11.5369 8.09211 11.5369C9.70725 11.5369 12.2074 11.3409 12.2074 11.3409C13.0398 11.2918 13.1379 12.5144 12.3067 12.6129C12.3067 12.6129 11.4699 12.7113 10.5391 12.7601L16.1622 29.4859L19.5418 19.3511L17.1357 12.7598C16.3041 12.711 15.5164 12.6126 15.5164 12.6126C14.6843 12.5638 14.7819 11.2915 15.614 11.3406C15.614 11.3406 18.164 11.5366 19.6813 11.5366C21.2962 11.5366 23.7966 11.3406 23.7966 11.3406C24.6296 11.2915 24.7274 12.5141 23.8956 12.6126C23.8956 12.6126 23.0574 12.711 22.1283 12.7598L27.7086 29.359L29.2485 24.2121C29.9164 22.0763 30.4244 20.5422 30.4244 19.2203Z" fill="#00749A"/>
<path d="M20.2717 21.35L15.6387 34.8123C17.0551 35.2297 18.5241 35.4417 20.0008 35.4417C21.799 35.4417 23.5234 35.1305 25.1285 34.5664C25.0855 34.499 25.0487 34.4278 25.0187 34.3537L20.2717 21.35ZM33.5501 12.5908C33.6165 13.0827 33.6541 13.611 33.6541 14.1786C33.6541 15.7456 33.3614 17.5071 32.48 19.7095L27.7633 33.3467C32.3539 30.6697 35.4417 25.6962 35.4417 19.9993C35.4458 17.4098 34.7951 14.8613 33.5501 12.5908Z" fill="#00749A"/>
<path d="M20.0001 2C10.0751 2 2 10.0745 2 19.9996C2 29.9258 10.0748 38.0003 20.0001 38.0003C29.9249 38.0003 38.0012 29.9261 38.0012 19.9996C38.0009 10.0745 29.9249 2 20.0001 2ZM20.0001 37.1749C10.5303 37.1749 2.82535 29.47 2.82535 19.9996C2.82535 10.53 10.53 2.82564 20.0001 2.82564C29.4697 2.82564 37.1741 10.53 37.1741 19.9996C37.1741 29.47 29.4695 37.1749 20.0001 37.1749Z" fill="#00749A"/>
</svg>
